<?xml version="1.0" encoding="UTF-8" standalone="no"?>
<!-- Created with Inkscape (http://www.inkscape.org/) -->

<svg
   xmlns:dc="http://purl.org/dc/elements/1.1/"
   xmlns:cc="http://creativecommons.org/ns#"
   xmlns:rdf="http://www.w3.org/1999/02/22-rdf-syntax-ns#"
   xmlns:svg="http://www.w3.org/2000/svg"
   xmlns="http://www.w3.org/2000/svg"
   xmlns:sodipodi="http://sodipodi.sourceforge.net/DTD/sodipodi-0.dtd"
   xmlns:inkscape="http://www.inkscape.org/namespaces/inkscape"
   width="64"
   height="64"
   id="svg4520"
   version="1.1"
   inkscape:version="0.48.2 r9819"
   sodipodi:docname="New document 15">
  <defs
     id="defs4522" />
  <sodipodi:namedview
     id="base"
     pagecolor="#ffffff"
     bordercolor="#666666"
     borderopacity="1.0"
     inkscape:pageopacity="0.0"
     inkscape:pageshadow="2"
     inkscape:zoom="0.98994949"
     inkscape:cx="127.16359"
     inkscape:cy="38.206423"
     inkscape:document-units="px"
     inkscape:current-layer="layer1"
     showgrid="false"
     inkscape:window-width="880"
     inkscape:window-height="664"
     inkscape:window-x="140"
     inkscape:window-y="171"
     inkscape:window-maximized="0" />
  <metadata
     id="metadata4525">
    <rdf:RDF>
      <cc:Work
         rdf:about="">
        <dc:format>image/svg+xml</dc:format>
        <dc:type
           rdf:resource="http://purl.org/dc/dcmitype/StillImage" />
        <dc:title></dc:title>
      </cc:Work>
    </rdf:RDF>
  </metadata>
  <g
     inkscape:label="Layer 1"
     inkscape:groupmode="layer"
     id="layer1"
     transform="translate(0,-988.36218)">
    <path
       sodipodi:type="arc"
       style="color:#000000;fill:#800000;fill-opacity:1;fill-rule:nonzero;stroke:none;stroke-width:2;marker:none;visibility:visible;display:inline;overflow:visible;enable-background:accumulate"
       id="path3819"
       sodipodi:cx="25"
       sodipodi:cy="28.166666"
       sodipodi:rx="14.166667"
       sodipodi:ry="14.833333"
       d="m 39.166667,28.166666 a 14.166667,14.833333 0 1 1 -28.333334,0 14.166667,14.833333 0 1 1 28.333334,0 z"
       transform="matrix(-1.6941176,0,0,1.6179776,74.352939,974.78909)"
       inkscape:export-filename="/home/thomas-clark/ChewyPrime/assets/Interface/Icons/Melee Attack.png"
       inkscape:export-xdpi="150"
       inkscape:export-ydpi="150" />
    <path
       style="color:#000000;fill:#000000;fill-opacity:1;fill-rule:nonzero;stroke:none;stroke-width:2;marker:none;visibility:visible;display:inline;overflow:visible;enable-background:accumulate"
       d="m 30.781248,1024.3941 c 2.024866,0.079 3.572362,1.2101 5.65625,3.5 l -2.34375,16.4375 c -0.685661,0.059 -1.392836,0.094 -2.09375,0.094 -4.273651,0 -8.274174,-1.1357 -11.75,-3.0937 l 4.53125,-15.2813 c 2.570514,-1.1581 4.425104,-1.718 6,-1.6562 z"
       id="path4580"
       inkscape:connector-curvature="0" />
    <path
       style="fill:#ffffff;stroke:none"
       d="m 25.597701,1026.3748 c 0,0 2.612891,-4.8468 2.234836,-6.3943 -0.378063,-1.5475 -1.82557,-5.3977 -2.05936,-5.6835 -0.233793,-0.2857 -0.923175,-2.0701 -1.308426,-3.586 -0.385258,-1.5159 -3.555653,-4.3638 -3.426163,-4.9321 0.129489,-0.5683 2.671656,-1.085 3.850612,0.4457 1.178956,1.5306 2.345109,5.4496 3.24791,5.4228 0.902808,-0.027 2.290007,-3.9285 2.391529,-5.8317 0.10152,-1.903 0.232588,-10.58631 0.621849,-11.12861 0.38926,-0.5424 1.485896,-0.691 2.002237,-0.042 0.516342,0.649 -0.154719,9.93011 0.200963,10.40971 0.355685,0.4795 0.557978,0.635 0.855316,0.2045 0.297338,-0.4304 3.015807,-10.90361 3.524163,-11.38561 0.508356,-0.482 1.42275,-0.7054 1.789622,0.3082 0.366874,1.0135 -2.525042,11.08181 -2.295641,11.53261 0.229397,0.4508 0.303928,0.4759 0.770516,0.4081 0.615585,-0.089 4.173181,-9.27831 4.604002,-9.71151 0.430824,-0.4332 1.60779,-0.4971 1.608582,0.6654 7.45e-4,1.1626 -3.389746,9.84161 -3.473276,10.35401 -0.08353,0.5123 0.473185,0.8384 0.812085,0.5171 0.338901,-0.3213 3.419917,-5.2765 4.078936,-5.6909 0.659024,-0.4144 1.352012,0.042 1.160574,1.0283 -0.19144,0.986 -4.141012,6.1886 -4.41877,7.5535 -0.277766,1.3648 -1.350845,5.637 -2.300419,7.1808 -0.949571,1.5439 -3.365868,5.4436 -3.685188,6.6993 -0.319329,1.2557 -0.667414,3.5432 -0.667414,3.5432 -5.204533,2.6506 -7.628505,0.2552 -10.119075,-1.887 z"
       id="path4556"
       inkscape:connector-curvature="0"
       sodipodi:nodetypes="cssssscsssccsscsscsscsssscc" />
  </g>
</svg>
